<svg width="199" height="91" viewBox="0 0 199 91" fill="none" xmlns="http://www.w3.org/2000/svg">
<rect width="199" height="91" fill="#E5E5E5"/>
<g clip-path="url(#clip0_0_1)">
<rect width="1920" height="7156" transform="translate(-1651 -1022)" fill="white"/>
<g clip-path="url(#clip1_0_1)">
<rect x="-1651" y="-5" width="1920" height="313" fill="url(#paint0_linear_0_1)"/>
<path d="M137.527 67.0172C85.619 116.063 34.6711 76.6529 11.3128 49.6346C-12.0454 22.6163 1.0312 18.2213 52.9392 -30.8248C104.847 -79.871 165.863 -97.7281 189.221 -70.7098C212.579 -43.6914 189.435 17.971 137.527 67.0172Z" fill="black"/>
<path d="M137.527 67.0172C85.619 116.063 34.6711 76.6529 11.3128 49.6346C-12.0454 22.6163 1.0312 18.2213 52.9392 -30.8248C104.847 -79.871 165.863 -97.7281 189.221 -70.7098C212.579 -43.6914 189.435 17.971 137.527 67.0172Z" fill="black"/>
<path d="M137.527 67.0172C85.619 116.063 34.6711 76.6529 11.3128 49.6346C-12.0454 22.6163 1.0312 18.2213 52.9392 -30.8248C104.847 -79.871 165.863 -97.7281 189.221 -70.7098C212.579 -43.6914 189.435 17.971 137.527 67.0172Z" fill="black"/>
<path d="M50.5327 30.9476C52.6053 102.17 69.93 45.1207 34.2334 47.8787C-1.4632 50.6366 -0.669782 36.888 -75.6851 21.6349C-77.7577 -49.5871 -53.551 -90.2595 -17.8544 -93.0174C17.8422 -95.7754 48.4602 -40.2743 50.5327 30.9476Z" fill="black"/>
<path d="M50.5327 30.9476C52.6053 102.17 69.93 45.1207 34.2334 47.8787C-1.4632 50.6366 -0.669782 36.888 -75.6851 21.6349C-77.7577 -49.5871 -53.551 -90.2595 -17.8544 -93.0174C17.8422 -95.7754 48.4602 -40.2743 50.5327 30.9476Z" fill="black"/>
<path d="M50.5327 30.9476C52.6053 102.17 69.93 45.1207 34.2334 47.8787C-1.4632 50.6366 -0.669782 36.888 -75.6851 21.6349C-77.7577 -49.5871 -53.551 -90.2595 -17.8544 -93.0174C17.8422 -95.7754 48.4602 -40.2743 50.5327 30.9476Z" fill="black"/>
<path d="M-147.334 -13.7559L126.104 107.34C161.958 123.219 178.151 165.156 162.273 201.009L49.2303 456.262L-224.208 335.166C-260.061 319.287 -276.255 277.35 -260.376 241.497L-147.334 -13.7559Z" stroke="black" stroke-width="18"/>
</g>
</g>
<rect x="-7992" y="-2281" width="11440" height="8993" stroke="#9A01A2" stroke-width="40"/>
<defs>
<linearGradient id="paint0_linear_0_1" x1="-1042.5" y1="135.988" x2="88.8573" y2="158.253" gradientUnits="userSpaceOnUse">
<stop stop-color="#1D1D1D"/>
<stop offset="1" stop-color="#1D1D1D"/>
<stop offset="1" stop-color="#1D1D1D"/>
</linearGradient>
<clipPath id="clip0_0_1">
<rect width="1920" height="7156" fill="white" transform="translate(-1651 -1022)"/>
</clipPath>
<clipPath id="clip1_0_1">
<rect width="1920" height="1878" fill="white" transform="translate(-1651)"/>
</clipPath>
</defs>
</svg>
